<?xml version="1.0" encoding="UTF-8"?>
<svg id="Layer_1" data-name="Layer 1" xmlns="http://www.w3.org/2000/svg" viewBox="0 0 1509.04 635.15">
  <defs>
    <style>
      .cls-1 {
        fill: #00f0a3;
      }

      .cls-2 {
        fill: #0a1a3a;
      }
    </style>
  </defs>
  <g>
    <path class="cls-2" d="M401.61,521.08c-5.67,0-10.45-.91-14.33-2.72-3.89-1.81-6.85-4.31-8.9-7.5-2.05-3.18-3.07-6.79-3.07-10.83h12.19c0,1.7.47,3.35,1.4,4.95.93,1.61,2.44,2.91,4.52,3.9,2.07.99,4.81,1.49,8.2,1.49,3.04,0,5.58-.44,7.63-1.31,2.05-.88,3.56-2.03,4.56-3.46.99-1.43,1.49-3.05,1.49-4.87,0-2.28-.96-4.11-2.89-5.48-1.93-1.37-4.91-2.24-8.94-2.59l-5.61-.44c-6.14-.53-11.03-2.44-14.69-5.74-3.65-3.3-5.48-7.67-5.48-13.11,0-4.09.96-7.61,2.89-10.56,1.93-2.95,4.63-5.23,8.11-6.84,3.48-1.61,7.55-2.41,12.23-2.41s9.03.85,12.54,2.54c3.51,1.7,6.22,4.08,8.15,7.15s2.89,6.68,2.89,10.83h-12.19c0-1.75-.42-3.38-1.27-4.87-.85-1.49-2.1-2.69-3.77-3.59-1.67-.91-3.78-1.36-6.36-1.36s-4.5.41-6.14,1.23c-1.64.82-2.86,1.93-3.68,3.33-.82,1.4-1.23,2.92-1.23,4.56,0,1.99.73,3.73,2.19,5.22,1.46,1.49,3.77,2.35,6.93,2.59l5.61.53c4.56.35,8.56,1.31,12.01,2.89,3.45,1.58,6.12,3.71,8.02,6.4,1.9,2.69,2.85,5.93,2.85,9.73,0,4.03-1.05,7.58-3.16,10.65-2.1,3.07-5.1,5.45-8.99,7.14-3.89,1.69-8.46,2.54-13.72,2.54Z"/>
    <path class="cls-2" d="M444.4,466.37v-10.96h49.45v10.96h-49.45ZM462.89,519.41v-54.79h12.45v54.79h-12.45Z"/>
    <path class="cls-2" d="M543.11,521.08c-5.96,0-10.99-1.14-15.08-3.42-4.09-2.28-7.2-5.48-9.34-9.6-2.13-4.12-3.2-8.96-3.2-14.51v-38.14h12.45v38.84c0,3.04.58,5.71,1.75,8.02,1.17,2.31,2.88,4.09,5.13,5.35,2.25,1.26,5.01,1.88,8.29,1.88s5.95-.63,8.2-1.88c2.25-1.26,3.95-3.02,5.08-5.3s1.71-4.97,1.71-8.07v-38.84h12.45v38.14c0,5.55-1.04,10.39-3.11,14.51-2.08,4.12-5.16,7.32-9.25,9.6-4.09,2.28-9.12,3.42-15.08,3.42Z"/>
    <path class="cls-2" d="M598.26,519.76v-64.79h12.45v64.79h-12.45ZM608.95,519.76v-11.57h13.24c3.33,0,6.3-.51,8.9-1.53,2.6-1.02,4.81-2.47,6.62-4.34,1.81-1.87,3.2-4.08,4.16-6.62.96-2.54,1.45-5.36,1.45-8.46s-.48-6.09-1.45-8.63c-.96-2.54-2.35-4.72-4.16-6.53-1.81-1.81-4.02-3.18-6.62-4.12-2.6-.93-5.57-1.4-8.9-1.4h-13.24v-11.57h12.45c5.79,0,10.84.85,15.17,2.54,4.32,1.7,7.92,4.02,10.78,6.97,2.86,2.95,5.01,6.31,6.44,10.08,1.43,3.77,2.15,7.67,2.15,11.7v1.93c0,3.86-.72,7.66-2.15,11.4-1.43,3.74-3.58,7.13-6.44,10.17-2.86,3.04-6.46,5.47-10.78,7.28-4.33,1.81-9.38,2.72-15.17,2.72h-12.45Z"/>
    <path class="cls-2" d="M680.4,519.41v-64h12.45v64h-12.45Z"/>
    <path class="cls-2" d="M752.03,521.08c-5.79,0-10.8-1.02-15.04-3.07-4.24-2.05-7.75-4.72-10.52-8.02-2.78-3.3-4.85-6.87-6.22-10.7-1.37-3.83-2.06-7.53-2.06-11.09v-1.93c0-3.92.7-7.82,2.1-11.7,1.4-3.89,3.52-7.41,6.36-10.56,2.83-3.16,6.36-5.68,10.56-7.58,4.21-1.9,9.15-2.85,14.82-2.85s10.52.95,14.73,2.85c4.21,1.9,7.73,4.43,10.56,7.58,2.83,3.16,4.95,6.68,6.36,10.56,1.4,3.89,2.1,7.79,2.1,11.7v1.93c0,3.57-.69,7.26-2.06,11.09-1.37,3.83-3.45,7.39-6.23,10.7-2.78,3.3-6.28,5.98-10.52,8.02-4.24,2.04-9.22,3.07-14.95,3.07ZM752.03,509.5c3.27,0,6.21-.58,8.81-1.75,2.6-1.17,4.82-2.79,6.66-4.87,1.84-2.07,3.24-4.44,4.21-7.1.96-2.66,1.45-5.48,1.45-8.46,0-3.21-.48-6.17-1.45-8.85-.96-2.69-2.37-5.03-4.21-7.01-1.84-1.99-4.08-3.54-6.71-4.65-2.63-1.11-5.55-1.67-8.77-1.67s-6.22.56-8.86,1.67c-2.63,1.11-4.87,2.66-6.71,4.65-1.84,1.99-3.24,4.33-4.21,7.01-.96,2.69-1.45,5.64-1.45,8.85,0,2.98.48,5.8,1.45,8.46.96,2.66,2.37,5.03,4.21,7.1,1.84,2.08,4.08,3.7,6.71,4.87,2.63,1.17,5.58,1.75,8.86,1.75Z"/>
  </g>
  <rect class="cls-1" x="257.1" y="101.92" width="88.07" height="88.07"/>
  <path class="cls-2" d="M433.02,411.53c-1.11,2.76-2.29,5.5-3.53,8.2l-102.66-2.76c4.08-5.6,7.06-11.97,8.8-18.45.02-.05.03-.12.05-.17,1.37-5.2,1.95-10.46,1.65-15.45l-1.17-7.44s.02-.05,0-.07c-1.14-4.29-3.07-8.2-5.83-11.45-3.4-3.98-7.84-6.67-12.84-8.29-2.64-.87-5.45-1.44-8.34-1.72l-83.52-17.18c-15.43-3.99-28.04-9.71-37.86-17.13-14.49-10.66-25.07-24.64-31.79-41.96-6.72-17.15-8.78-35.7-6.16-55.69,1.44-11.03,4.27-21.69,8.55-31.99h101.39c-3.71,6.68-6.49,14.51-7.63,22.3-1.77,11.64.08,23.21,7.71,30.85,3.02,3.02,6.77,5.25,10.96,6.72.02.02.03.02.07.02,2.31.83,4.77,1.4,7.33,1.75l112.95,26.89c12.81,5.13,23.17,12.03,31.06,20.71,2.28,2.61,4.31,5.22,6.14,7.81.17.25.33.5.5.73,3.8,5.48,6.65,10.91,8.83,16.16,11.74,28.27,6.8,59.22-4.65,87.61Z"/>
  <g>
    <path class="cls-2" d="M847.62,194.07l.76,2.41,1.32-2.41h-2.08ZM1125.3,194.02l-.58,2.75,1.46-2.75h-.88Z"/>
    <polygon class="cls-2" points="848.38 196.48 724.13 423.99 640.57 423.99 621.65 314.91 562.9 423.99 480.1 423.99 441.08 194.07 522.12 194.07 540.33 315.36 607.02 194.07 680.53 194.07 699.31 315.57 765.82 194.07 847.62 194.07 848.38 196.48"/>
  </g>
  <path class="cls-2" d="M1124.98,194.02l-.58,2.75-133.11,251.15c-16.63,31.68-34.59,54.04-53.37,66.46-18.92,12.5-40.37,18.85-63.74,18.85-15.93,0-31.61-2.91-46.58-8.65l-3.9-1.5,11.8-74.63,6,2.41c8.58,3.42,17.1,5.16,25.3,5.16,10.72,0,19.28-3.22,26.18-9.86,7.14-6.86,15.07-18.13,23.6-33.5l-68.51-216.18,1.32-2.41h-2.08l-.02-.05h94.1l29.98,119.04,50.22-119.04h103.39Z"/>
  <path class="cls-2" d="M1336.22,213.07l-.1-.1c-15.26-15.24-34.61-22.98-57.53-22.98-19.93,0-38.06,6.43-54.08,19.16l2.87-13.9h-79.39l-.05.22h.88l-1.46,2.75-65.98,311.23h80.65l18.46-86.41c14.09,7.07,30.7,10.65,49.48,10.65,36.81,0,68.11-14.77,93.07-43.95,24.75-28.91,37.31-64.67,37.31-106.26,0-29.86-8.12-53.56-24.11-70.42ZM1224.3,367.06c-11.33,0-21.16-3.01-29.93-9.17l18.4-87.03c11.45-9.58,23.72-14.22,37.44-14.22,21.36,0,31.3,11.35,31.3,35.76,0,20.66-5.11,38.18-15.26,52.13-10.7,15.15-24.42,22.53-41.97,22.53Z"/>
</svg>