<?xml version="1.0" encoding="UTF-8"?>
<svg version="1.1" xmlns="http://www.w3.org/2000/svg" width="1200" height="1200">
<path d="M0 0 C1.46178932 -0.00856522 1.46178932 -0.00856522 2.95310974 -0.01730347 C4.03105804 -0.01842133 5.10900635 -0.01953918 6.21961975 -0.02069092 C7.34796738 -0.02565582 8.476315 -0.03062073 9.63885498 -0.03573608 C13.38982237 -0.05040048 17.14074749 -0.05716636 20.89173889 -0.06268311 C23.48626711 -0.06843046 26.08079531 -0.07418823 28.67532349 -0.07995605 C33.4248896 -0.08913108 38.17443867 -0.09542683 42.92401212 -0.09845281 C49.92361975 -0.10293627 56.92303236 -0.12049529 63.92258066 -0.1494534 C69.97688909 -0.17363526 76.03110493 -0.18139518 82.08546638 -0.18312836 C84.66557948 -0.18616595 87.24569153 -0.19423136 89.82577324 -0.20731354 C93.42725992 -0.22427285 97.02826616 -0.22251862 100.629776 -0.21600342 C101.70570007 -0.2252182 102.78162415 -0.23443298 103.89015198 -0.243927 C104.86749802 -0.23835785 105.84484406 -0.2327887 106.85180664 -0.22705078 C108.13022887 -0.22925062 108.13022887 -0.22925062 109.43447781 -0.2314949 C110.11260053 -0.10875576 110.79072325 0.01398338 111.48939514 0.14044189 C113.63109495 3.35299161 113.7390159 4.16906713 113.7366333 7.86032104 C113.74082779 8.83062759 113.74502228 9.80093414 113.74934387 10.80064392 C113.74372437 11.86362198 113.73810486 12.92660004 113.73231506 14.02178955 C113.73421341 15.14228195 113.73611176 16.26277435 113.73806763 17.41722107 C113.74177963 21.12971947 113.73106619 24.84202331 113.71986389 28.55450439 C113.71867237 31.12614926 113.71821887 33.69779457 113.71847534 36.2694397 C113.71690981 41.66136595 113.70885594 47.05322152 113.69520569 52.44512939 C113.67946443 58.68621155 113.67420814 64.92723212 113.67494124 71.1683327 C113.67555069 77.16604816 113.67034598 83.16373841 113.66214943 89.16144943 C113.65895644 91.71725721 113.65699389 94.27306683 113.65625572 96.8288765 C113.65409978 100.39191071 113.64537226 103.95486591 113.63465881 107.5178833 C113.63533859 109.11842308 113.63533859 109.11842308 113.6360321 110.751297 C113.63176712 111.7159639 113.62750214 112.6806308 113.62310791 113.67453003 C113.62143207 114.51776133 113.61975622 115.36099262 113.61802959 116.22977638 C113.48939514 118.14044189 113.48939514 118.14044189 112.48939514 119.14044189 C111.02234453 119.24820104 109.55018234 119.2872575 108.07922363 119.29866028 C107.12704956 119.3084491 106.17487549 119.31823792 105.19384766 119.32832336 C104.14080948 119.33407883 103.0877713 119.33983429 102.00282288 119.34576416 C100.90052338 119.35566376 99.79822388 119.36556335 98.66252136 119.37576294 C94.99936612 119.40748676 91.33619789 119.43217822 87.67298889 119.45684814 C85.14092664 119.47740828 82.6088679 119.49840449 80.07681274 119.51982117 C74.08094512 119.56947729 68.08505972 119.6147173 62.08914286 119.65784353 C55.26455005 119.70717462 48.44000598 119.762108 41.61546028 119.81752312 C27.57348403 119.93141747 13.53146101 120.0382402 -0.51060486 120.14044189 C-1.31781466 121.73027032 -2.12220099 123.32153252 -2.92539978 124.91339111 C-3.37364609 125.79936981 -3.8218924 126.68534851 -4.28372192 127.59817505 C-9.0226319 137.41783541 -9.89363521 147.70666653 -10.01060486 158.45294189 C-10.02905457 159.4424585 -10.04750427 160.4319751 -10.06651306 161.45147705 C-9.9763157 172.15906504 -6.97352847 180.5528955 0.48158264 188.26934814 C8.24322476 195.50247378 17.5434922 197.52948992 27.61439514 199.64044189 C40.13501649 202.34793524 52.5964062 205.27385806 65.05189514 208.26544189 C66.50471893 208.6140477 66.50471893 208.6140477 67.9868927 208.96969604 C74.10033211 210.43691899 80.2129905 211.90737313 86.32539368 213.37890625 C92.7519367 214.92569491 99.17894917 216.47053335 105.60638428 218.01361084 C110.9321493 219.29222408 116.25726901 220.5733828 121.58094788 221.86065674 C130.91758402 224.11431966 140.25584091 226.33669707 149.63783264 228.39434814 C177.15939273 234.4644902 177.15939273 234.4644902 189.48939514 242.14044189 C190.82550842 242.85780518 190.82550842 242.85780518 192.18861389 243.58966064 C216.69442577 257.01592178 232.50324447 282.02218506 240.44642639 308.15606689 C242.70623004 316.45918911 243.86342641 324.54391051 244.17689514 333.14044189 C244.21451965 334.14446045 244.25214417 335.148479 244.29090881 336.18292236 C245.23609033 366.16684191 238.66215819 395.11120837 225.48939514 422.14044189 C223.62983313 424.0000039 220.53955373 423.2695764 218.05702209 423.27105713 C217.37940763 423.27225367 216.70179317 423.2734502 216.00364494 423.274683 C213.72410945 423.27627376 211.44469782 423.26941097 209.16517639 423.26153564 C207.9757566 423.25952558 207.9757566 423.25952558 206.76230812 423.2574749 C186.9989726 423.22028125 167.24539434 422.76169419 147.48902893 422.27160645 C143.69410361 422.17894484 139.89905663 422.09192849 136.10399914 422.00487614 C132.38468506 421.9189334 128.66545282 421.8297928 124.94623756 421.73968315 C123.20306303 421.69774747 121.45986751 421.65667338 119.71665001 421.6165638 C109.28214547 421.37411341 98.89778208 420.93455101 88.48939514 420.14044189 C87.35951233 416.39239502 87.35951233 416.39239502 88.52845764 414.12481689 C89.05181702 413.38747314 89.57517639 412.65012939 90.11439514 411.89044189 C98.96461671 398.04778764 101.55141228 380.28177472 98.36439514 364.32794189 C96.0617706 355.48328127 91.24602341 348.10735373 83.48939514 343.14044189 C75.07191719 339.28588905 66.63434399 337.09414811 57.55189514 335.51544189 C54.84422276 335.01733558 52.13724453 334.51621382 49.43080139 334.01153564 C48.31138657 333.80437675 48.31138657 333.80437675 47.1693573 333.59303284 C36.60480707 331.62515287 26.08004981 329.45505363 15.55137634 327.30505371 C12.08200862 326.5968472 8.612039 325.89165399 5.14198303 325.18682861 C-8.23497664 322.46310042 -21.58681634 319.63979419 -34.91960144 316.70753479 C-38.51936606 315.91965434 -42.12227122 315.1465028 -45.72546387 314.37446594 C-66.520934 309.77807506 -84.62390385 301.10225687 -101.51060486 288.14044189 C-102.90472595 287.09050049 -102.90472595 287.09050049 -104.32701111 286.01934814 C-111.08472967 280.74663589 -116.40012954 275.00621464 -121.51060486 268.14044189 C-122.2621283 267.14141846 -123.01365173 266.14239502 -123.78794861 265.11309814 C-140.16950864 242.45894077 -148.81518264 216.01780225 -149.51060486 188.14044189 C-149.5505658 187.19942627 -149.59052673 186.25841064 -149.63169861 185.28887939 C-150.18885301 162.54387024 -146.78930382 137.69783981 -136.51060486 117.14044189 C-93.28060486 117.14044189 -50.05060486 117.14044189 -5.51060486 117.14044189 C-5.84060486 104.60044189 -6.17060486 92.06044189 -6.51060486 79.14044189 C-6.59392653 70.40882071 -6.65798301 61.68390228 -6.63560486 52.95294189 C-6.63438629 51.88352356 -6.63316772 50.81410522 -6.63191223 49.71228027 C-6.5660039 0.02292704 -6.5660039 0.02292704 0 0 Z " fill="#0A1938" transform="translate(552.5106048583984,387.85955810546875)"/>
<path d="M0 0 C1.46178932 -0.00856522 1.46178932 -0.00856522 2.95310974 -0.01730347 C4.03105804 -0.01842133 5.10900635 -0.01953918 6.21961975 -0.02069092 C7.34796738 -0.02565582 8.476315 -0.03062073 9.63885498 -0.03573608 C13.38982237 -0.05040048 17.14074749 -0.05716636 20.89173889 -0.06268311 C23.48626711 -0.06843046 26.08079531 -0.07418823 28.67532349 -0.07995605 C33.4248896 -0.08913108 38.17443867 -0.09542683 42.92401212 -0.09845281 C49.92361975 -0.10293627 56.92303236 -0.12049529 63.92258066 -0.1494534 C69.97688909 -0.17363526 76.03110493 -0.18139518 82.08546638 -0.18312836 C84.66557948 -0.18616595 87.24569153 -0.19423136 89.82577324 -0.20731354 C93.42725992 -0.22427285 97.02826616 -0.22251862 100.629776 -0.21600342 C101.70570007 -0.2252182 102.78162415 -0.23443298 103.89015198 -0.243927 C104.86749802 -0.23835785 105.84484406 -0.2327887 106.85180664 -0.22705078 C107.70408813 -0.22851734 108.55636961 -0.2299839 109.43447781 -0.2314949 C110.11260053 -0.10875576 110.79072325 0.01398338 111.48939514 0.14044189 C113.63109495 3.35299161 113.7390159 4.16906713 113.7366333 7.86032104 C113.74082779 8.83062759 113.74502228 9.80093414 113.74934387 10.80064392 C113.74372437 11.86362198 113.73810486 12.92660004 113.73231506 14.02178955 C113.73421341 15.14228195 113.73611176 16.26277435 113.73806763 17.41722107 C113.74177963 21.12971947 113.73106619 24.84202331 113.71986389 28.55450439 C113.71867237 31.12614926 113.71821887 33.69779457 113.71847534 36.2694397 C113.71690981 41.66136595 113.70885594 47.05322152 113.69520569 52.44512939 C113.67946443 58.68621155 113.67420814 64.92723212 113.67494124 71.1683327 C113.67555069 77.16604816 113.67034598 83.16373841 113.66214943 89.16144943 C113.65895644 91.71725721 113.65699389 94.27306683 113.65625572 96.8288765 C113.65409978 100.39191071 113.64537226 103.95486591 113.63465881 107.5178833 C113.635112 108.58490982 113.63556519 109.65193634 113.6360321 110.751297 C113.63176712 111.7159639 113.62750214 112.6806308 113.62310791 113.67453003 C113.62143207 114.51776133 113.61975622 115.36099262 113.61802959 116.22977638 C113.48939514 118.14044189 113.48939514 118.14044189 112.48939514 119.14044189 C111.00966706 119.24824045 109.52486543 119.28726045 108.04125977 119.29866028 C107.08067154 119.3084491 106.12008331 119.31823792 105.13038635 119.32832336 C104.06799744 119.33407883 103.00560852 119.33983429 101.911026 119.34576416 C100.79897293 119.35566376 99.68691986 119.36556335 98.54116821 119.37576294 C94.84554716 119.40748712 91.14991323 119.43217837 87.45423889 119.45684814 C84.89975642 119.47740825 82.34527743 119.49840446 79.790802 119.51982117 C73.74181023 119.56947756 67.69280084 119.61471749 61.64376026 119.65784353 C54.75870939 119.70717436 47.87370683 119.76210784 40.98870265 119.81752312 C26.82231189 119.93141793 12.65587475 120.03824056 -1.51060486 120.14044189 C-1.51060486 119.48044189 -1.51060486 118.82044189 -1.51060486 118.14044189 C-3.82060486 118.14044189 -6.13060486 118.14044189 -8.51060486 118.14044189 C-7.02560486 117.64544189 -7.02560486 117.64544189 -5.51060486 117.14044189 C-5.55604431 115.81435913 -5.55604431 115.81435913 -5.60240173 114.46148682 C-8.49249096 27.03072998 -8.49249096 27.03072998 -5.51060486 1.14044189 C-3.90920966 -0.4609533 -2.21833633 0.00774594 0 0 Z " fill="#00F0A3" transform="translate(552.5106048583984,387.85955810546875)"/>
<path d="M0 0 C16.63730595 -0.04669162 33.27459069 -0.08197489 49.9119463 -0.10362434 C57.63671367 -0.11394311 65.36144037 -0.12801487 73.08618164 -0.15087891 C79.81796012 -0.17079445 86.54970914 -0.18371207 93.28151625 -0.18817699 C96.84695849 -0.19078749 100.41231644 -0.19693569 103.9777317 -0.21146011 C107.95497865 -0.22753124 111.93214266 -0.22798087 115.90942383 -0.22705078 C117.09553253 -0.23424133 118.28164124 -0.24143188 119.50369263 -0.24884033 C120.58482834 -0.246091 121.66596405 -0.24334167 122.77986145 -0.24050903 C123.72101209 -0.24235262 124.66216272 -0.24419621 125.63183308 -0.24609566 C128 0 128 0 131 2 C88.1 2.33 45.2 2.66 1 3 C0.34 6.63 -0.32 10.26 -1 14 C-1.46503879 15.94618734 -1.95576093 17.8869585 -2.5 19.8125 C-2.7371875 20.66457031 -2.974375 21.51664063 -3.21875 22.39453125 C-3.77838331 24.26090834 -4.38713528 26.11282992 -5.02734375 27.953125 C-9.86333451 43.10201172 -9.32559605 60.23184865 -9 76 C-8.97486328 77.48693359 -8.97486328 77.48693359 -8.94921875 79.00390625 C-8.61570772 85.70271343 -7.1999865 92.11089867 -5.6875 98.625 C-5.48680908 99.49608398 -5.28611816 100.36716797 -5.0793457 101.26464844 C-2.89048647 110.25075943 0.59509649 118.57035553 4.75 126.8125 C5.08854004 127.48829102 5.42708008 128.16408203 5.77587891 128.86035156 C8.6707575 134.54343427 11.91060946 139.95131525 15.3359375 145.328125 C17 148 17 148 18.0390625 150.296875 C18.94979602 152.35595821 18.94979602 152.35595821 22 153 C23.4375 154.75 23.4375 154.75 25 157 C31.86447404 166.08533329 41.34524298 172.19511494 51 178 C51.88300781 178.54011719 52.76601563 179.08023438 53.67578125 179.63671875 C56.06617578 181.03881571 58.42420498 181.98166243 61 183 C62.11375 183.598125 63.2275 184.19625 64.375 184.8125 C75.61555371 190.46740137 88.08008576 193.1353927 100.3125 195.6875 C101.70133582 195.98425979 103.09000843 196.28178449 104.47851562 196.58007812 C111.64042966 198.11287096 118.81410119 199.58395332 126 201 C143.69928394 204.50474918 161.39355006 208.01100689 179.02026367 211.86791992 C184.65843431 213.09578819 190.29809698 214.26033577 195.97265625 215.30859375 C197.66624268 215.62642822 197.66624268 215.62642822 199.39404297 215.95068359 C201.50906228 216.34358488 203.62647691 216.7239171 205.74658203 217.08837891 C217.73881256 219.33122385 227.38837992 225.4970304 234.375 235.5625 C241.6539359 247.22063311 241.59478503 262.78036924 238.75 275.9375 C237.35675672 281.25416895 235.40127252 286.0725888 233 291 C232.45192928 292.30983874 231.90977243 293.6221759 231.375 294.9375 C230 298 230 298 228 300 C239.76461348 300.26551004 251.52931838 300.52651628 263.29414749 300.78230286 C268.76141382 300.90130042 274.22864214 301.02165396 279.69580078 301.14550781 C306.13476593 301.74336989 332.55382938 302.16685686 359 302 C359.7957003 300.2747959 360.58860725 298.5483033 361.38037109 296.82128906 C361.82222748 295.85999084 362.26408386 294.89869263 362.71932983 293.90826416 C364.61464105 289.60421631 366.15509975 285.21426682 367.625 280.75 C367.92494873 279.84685059 368.22489746 278.94370117 368.53393555 278.01318359 C370.64995935 271.47569533 372.23535783 264.99489055 373.39453125 258.2265625 C374 255 374 255 375.03515625 251.39453125 C377.59849669 242.37613919 377.09607207 232.73782886 377.125 223.4375 C377.12967285 222.3657251 377.1343457 221.2939502 377.13916016 220.18969727 C377.13706543 219.17705811 377.1349707 218.16441895 377.1328125 217.12109375 C377.13168457 216.2077124 377.13055664 215.29433105 377.12939453 214.35327148 C377.09527974 211.84639558 377.09527974 211.84639558 376 209 C375.69760965 206.13569136 375.49234231 203.27080066 375.28125 200.3984375 C375.25714407 198.05049709 375.25714407 198.05049709 374 197 C373.69936708 195.52660102 373.43509133 194.04573405 373.1875 192.5625 C371.70940619 184.85214495 368.61847464 177.93540972 365 171 C364.195625 169.2365625 364.195625 169.2365625 363.375 167.4375 C359.34204394 159.38715913 354.20831954 151.44814849 347 146 C345.65263027 144.34466005 344.31665664 142.67987227 343 141 C342.34 140.67 341.68 140.34 341 140 C341 139.34 341 138.68 341 138 C340.14728516 137.59587891 340.14728516 137.59587891 339.27734375 137.18359375 C336.91095496 135.95372102 334.76605501 134.56336156 332.5625 133.0625 C321.63582516 125.63236111 310.7771553 120.46092505 297.875 117.5 C296.66142822 117.20939697 295.44785645 116.91879395 294.19750977 116.61938477 C290.46841658 115.73095256 286.73488215 114.8637319 283 114 C280.7824206 113.47842328 278.5649674 112.95630967 276.34765625 112.43359375 C264.06220964 109.55593835 251.74361023 106.83068406 239.421875 104.11352539 C232.16358331 102.50476716 224.95098318 100.77570225 217.75 98.9296875 C213.49453086 97.87468578 209.22136636 96.9312753 204.9375 96 C196.88426031 94.244509 188.95329106 92.16661731 181 90 C175.03409685 88.40294999 169.11852553 86.99774878 163.0234375 85.97973633 C148.08872088 83.43992555 136.93197007 77.50035804 127.5078125 65.50390625 C122.85080104 57.77037167 122.45307438 50.86956051 122.5 42 C122.50531738 40.20502075 122.50531738 40.20502075 122.51074219 38.3737793 C122.74760679 25.67663528 125.75132567 15.10875436 132 4 C132.99 4 133.98 4 135 4 C134.67386719 4.79921875 134.34773437 5.5984375 134.01171875 6.421875 C132.61643488 9.92860615 131.29347542 13.45449149 130 17 C129.67 17.88816406 129.34 18.77632812 129 19.69140625 C126.82014677 26.72352894 126.65890716 33.75728892 126.5625 41.0625 C126.54018311 42.06772705 126.51786621 43.0729541 126.49487305 44.10864258 C126.52756414 54.92586068 129.45364615 63.32609869 136.9921875 71.12890625 C144.75382962 78.36203188 154.05409706 80.38904803 164.125 82.5 C176.64562135 85.20749334 189.10701106 88.13341616 201.5625 91.125 C202.53104919 91.35740387 203.49959839 91.58980774 204.49749756 91.82925415 C210.61093697 93.2964771 216.72359536 94.76693123 222.83599854 96.23846436 C229.26254156 97.78525301 235.68955402 99.33009145 242.11698914 100.87316895 C247.44275416 102.15178218 252.76787387 103.43294091 258.09155273 104.72021484 C267.42818888 106.97387776 276.76644577 109.19625517 286.1484375 111.25390625 C313.66999759 117.3240483 313.66999759 117.3240483 326 125 C327.33611328 125.71736328 327.33611328 125.71736328 328.69921875 126.44921875 C353.20503063 139.87547989 369.01384932 164.88174317 376.95703125 191.015625 C379.2168349 199.31874721 380.37403126 207.40346861 380.6875 216 C380.72512451 217.00401855 380.76274902 218.00803711 380.80151367 219.04248047 C381.74669519 249.02640002 375.17276305 277.97076648 362 305 C360.14043799 306.85956201 357.05015859 306.1291345 354.56762695 306.13061523 C353.89001249 306.13181177 353.21239803 306.13300831 352.5142498 306.1342411 C350.23471431 306.13583186 347.95530268 306.12896908 345.67578125 306.12109375 C344.48636146 306.11908368 344.48636146 306.11908368 343.27291298 306.117033 C323.50957746 306.07983936 303.75599919 305.6212523 283.99963379 305.13116455 C280.20470846 305.03850294 276.40966149 304.9514866 272.614604 304.86443424 C268.89528991 304.77849151 265.17605768 304.6893509 261.45684242 304.59924126 C259.71366789 304.55730558 257.97047237 304.51623148 256.22725487 304.4761219 C245.79275032 304.23367152 235.40838694 303.79410912 225 303 C223.87011719 299.25195312 223.87011719 299.25195312 225.0390625 296.984375 C225.56242188 296.24703125 226.08578125 295.5096875 226.625 294.75 C235.47522157 280.90734575 238.06201713 263.14133283 234.875 247.1875 C232.57237546 238.34283938 227.75662827 230.96691184 220 226 C211.58252205 222.14544716 203.14494884 219.95370621 194.0625 218.375 C191.35482762 217.87689369 188.64784939 217.37577193 185.94140625 216.87109375 C184.82199142 216.66393486 184.82199142 216.66393486 183.67996216 216.45259094 C173.11541193 214.48471097 162.59065467 212.31461174 152.0619812 210.16461182 C148.59261348 209.45640531 145.12264386 208.7512121 141.65258789 208.04638672 C128.27562822 205.32265852 114.92378852 202.4993523 101.59100342 199.5670929 C97.9912388 198.77921244 94.38833364 198.0060609 90.78514099 197.23402405 C69.98967086 192.63763316 51.88670101 183.96181498 35 171 C34.07058594 170.30003906 33.14117187 169.60007812 32.18359375 168.87890625 C25.42587519 163.60619399 20.11047532 157.86577275 15 151 C14.24847656 150.00097656 13.49695313 149.00195312 12.72265625 147.97265625 C-3.65890378 125.31849887 -12.30457778 98.87736035 -13 71 C-13.05994141 69.58847656 -13.05994141 69.58847656 -13.12109375 68.1484375 C-13.67381764 45.58429765 -10.44302886 20.33946048 0 0 Z " fill="#00000F" transform="translate(416,505)"/>
<path d="M0 0 C16.63730595 -0.04669162 33.27459069 -0.08197489 49.9119463 -0.10362434 C57.63671367 -0.11394311 65.36144037 -0.12801487 73.08618164 -0.15087891 C79.81796012 -0.17079445 86.54970914 -0.18371207 93.28151625 -0.18817699 C96.84695849 -0.19078749 100.41231644 -0.19693569 103.9777317 -0.21146011 C107.95497865 -0.22753124 111.93214266 -0.22798087 115.90942383 -0.22705078 C117.09553253 -0.23424133 118.28164124 -0.24143188 119.50369263 -0.24884033 C120.58482834 -0.246091 121.66596405 -0.24334167 122.77986145 -0.24050903 C123.72101209 -0.24235262 124.66216272 -0.24419621 125.63183308 -0.24609566 C128 0 128 0 131 2 C88.1 2.33 45.2 2.66 1 3 C0.67 5.31 0.34 7.62 0 10 C-0.99 10.495 -0.99 10.495 -2 11 C-2.6875 9.4375 -2.6875 9.4375 -3 7 C-2.04635519 4.64734065 -1.04925696 2.3116021 0 0 Z " fill="#000002" transform="translate(416,505)"/>
<path d="M0 0 C2.77890323 2.77890323 2.31153158 4.55698747 2.4140625 8.44921875 C2.43342865 9.09889114 2.4527948 9.74856354 2.4727478 10.41792297 C2.53253038 12.50764694 2.57869888 14.59743856 2.625 16.6875 C2.66322422 18.04494574 2.70227848 19.40236837 2.7421875 20.75976562 C2.99495342 29.84093334 3.0442302 38.91560927 3 48 C2.67 46.68 2.34 45.36 2 44 C1.34 44 0.68 44 0 44 C-1.05097949 29.21121717 -1.05097949 14.78878283 0 0 Z " fill="#000007" transform="translate(404,548)"/>
<path d="M0 0 C1.58216309 0.00676758 1.58216309 0.00676758 3.19628906 0.01367188 C4.35354492 0.03494141 5.51080078 0.05621094 6.703125 0.078125 C8.50475098 0.09456055 8.50475098 0.09456055 10.34277344 0.11132812 C14.54695681 0.15985822 18.74966553 0.23798806 22.953125 0.328125 C23.78392578 0.34593018 24.61472656 0.36373535 25.47070312 0.38208008 C37.63288722 0.64809956 49.79326865 0.97215287 61.953125 1.328125 C61.953125 1.658125 61.953125 1.988125 61.953125 2.328125 C38.61354779 3.02190957 15.30365271 3.49453047 -8.046875 3.328125 C-5.55726964 0.21868385 -3.91480698 -0.04024438 0 0 Z " fill="#000625" transform="translate(677.046875,805.671875)"/>
<path d="M0 0 C2.29633824 3.44450737 2.54016485 5.93812283 3 10 C2.01 10.33 1.02 10.66 0 11 C-1.125 3.375 -1.125 3.375 0 0 Z " fill="#00031E" transform="translate(652,745)"/>
<path d="M0 0 C0.33 0 0.66 0 1 0 C0.8864371 1.64666203 0.75882619 3.29236082 0.625 4.9375 C0.52058594 6.31228516 0.52058594 6.31228516 0.4140625 7.71484375 C0.27742188 8.46894531 0.14078125 9.22304688 0 10 C-0.99 10.495 -0.99 10.495 -2 11 C-3.10844919 7.67465243 -2.84454356 5.37817425 -2 2 C-1.34 2 -0.68 2 0 2 C0 1.34 0 0.68 0 0 Z " fill="#000008" transform="translate(409,530)"/>
<path d="M0 0 C0.66 0.33 1.32 0.66 2 1 C1.34 4.3 0.68 7.6 0 11 C-2 9 -2 9 -2.25 5.5 C-2 2 -2 2 0 0 Z " fill="#000007" transform="translate(543,523)"/>
<path d="M0 0 C0.33 0.99 0.66 1.98 1 3 C-2.125 2.47916667 -5.25 1.95833333 -8.375 1.4375 C-9.24125 1.293125 -10.1075 1.14875 -11 1 C-7.2297564 -1.56376565 -4.32597804 -0.83191885 0 0 Z " fill="#00021A" transform="translate(615,596)"/>
<path d="M0 0 C1.98362069 2.91708924 1.9876191 4.12380904 1.625 7.75 C1.41875 8.8225 1.2125 9.895 1 11 C-1 9 -1 9 -1.1875 5.5 C-1 2 -1 2 0 0 Z " fill="#000004" transform="translate(791,761)"/>
<path d="M0 0 C-0.33 0.99 -0.66 1.98 -1 3 C-2.65 3.33 -4.3 3.66 -6 4 C-6.33 3.01 -6.66 2.02 -7 1 C-4 0 -4 0 0 0 Z " fill="#041E2F" transform="translate(551,506)"/>
<path d="M0 0 C0.99 0 1.98 0 3 0 C2.67 2.31 2.34 4.62 2 7 C1.01 7.33 0.02 7.66 -1 8 C-1.125 2.25 -1.125 2.25 0 0 Z " fill="#000222" transform="translate(652,776)"/>
<path d="M0 0 C0.66 0.66 1.32 1.32 2 2 C1.53846154 8.46153846 1.53846154 8.46153846 -1 11 C-1.14285714 3.57142857 -1.14285714 3.57142857 0 0 Z " fill="#000003" transform="translate(411,517)"/>
<path d="M0 0 C0.66 0.33 1.32 0.66 2 1 C1.67 2.98 1.34 4.96 1 7 C0.01 7 -0.98 7 -2 7 C-1.34 4.69 -0.68 2.38 0 0 Z " fill="#000420" transform="translate(544,517)"/>
<path d="" fill="#000000" transform="translate(0,0)"/>
<path d="" fill="#00FF00" transform="translate(0,0)"/>
<path d="" fill="#00FF00" transform="translate(0,0)"/>
</svg>
